<?xml version="1.0" encoding="utf-8"?>
<!-- Generator: Adobe Illustrator 16.0.0, SVG Export Plug-In . SVG Version: 6.00 Build 0)  -->
<!DOCTYPE svg PUBLIC "-//W3C//DTD SVG 1.1//EN" "http://www.w3.org/Graphics/SVG/1.1/DTD/svg11.dtd">
<svg version="1.1" id="Layer_1" xmlns="http://www.w3.org/2000/svg" xmlns:xlink="http://www.w3.org/1999/xlink" x="0px" y="0px"
	 width="887.816px" height="232.549px" viewBox="0 0 887.816 232.549" enable-background="new 0 0 887.816 232.549"
	 xml:space="preserve">
<g>
	<g>
		<path fill="#19A8CD" d="M124.702,18.503c-3.235,3.238-6.042,6.744-8.428,10.442c-2.385-3.698-5.189-7.206-8.427-10.442
			c-24.667-24.67-64.674-24.669-89.344,0c-24.671,24.674-24.667,64.672,0,89.341c3.238,3.238,6.747,6.041,10.442,8.429
			c-3.695,2.389-7.204,5.189-10.439,8.428c-24.674,24.674-24.674,64.67,0,89.341c24.667,24.671,64.667,24.677,89.344,0l9.245-9.242
			l87.706-87.707l9.245-9.247c4.098-4.098,7.497-8.622,10.233-13.427c13.742-24.115,10.336-55.345-10.233-75.916
			C189.369-6.169,149.369-6.166,124.702,18.503z"/>
		<path fill="#19A8CD" d="M214.046,124.701c-0.084-0.084-0.174-0.161-0.258-0.245l-89.328,89.322
			c0.084,0.087,0.155,0.18,0.242,0.264c24.674,24.677,64.667,24.677,89.344,0C238.716,189.371,238.72,149.375,214.046,124.701z"/>
	</g>
	<g>
		<path fill="#333333" d="M269.439,187.755l49.702-70.713l-48.472-69.278h30.645l33.407,47.246l33.104-47.246h29.615l-48.066,68.254
			l50.32,71.737h-30.639L333.8,137.847l-35.255,49.908H269.439z"/>
		<path fill="#333333" d="M415.886,117.658c0-47.824,21.657-71.738,64.98-71.738c14.963,0,29.171,2.699,42.633,8.096v14.554
			c-13.326-5.602-26.988-8.403-40.997-8.403c-17.763,0-30.78,4.611-39.047,13.835c-8.268,9.223-12.401,23.776-12.401,43.657
			c0,19.88,4.133,34.437,12.401,43.656c8.267,9.226,21.284,13.835,39.047,13.835c14.279,0,27.947-2.729,40.997-8.195v14.55
			c-13.391,5.264-27.433,7.894-42.124,7.894c-0.206,0-0.373,0-0.509,0C437.543,189.397,415.886,165.486,415.886,117.658z"/>
		<path fill="#333333" d="M541.944,187.755V43.153h15.168v144.603H541.944z"/>
		<path fill="#333333" d="M579.961,162.496c-2.936-7.484-4.403-16.553-4.403-27.211s1.468-19.728,4.403-27.209
			c2.942-7.481,6.935-13.066,11.994-16.756c5.054-3.689,10.198-6.303,15.426-7.84c5.222-1.537,10.996-2.305,17.318-2.305
			c6.315,0,12.123,0.768,17.422,2.305c5.292,1.537,10.468,4.151,15.528,7.84c5.054,3.69,9.052,9.275,11.987,16.756
			c2.937,7.481,4.404,16.551,4.404,27.209s-1.468,19.727-4.404,27.211c-2.936,7.48-6.934,13.065-11.987,16.755
			c-5.061,3.688-10.236,6.303-15.528,7.842c-5.299,1.535-11.106,2.305-17.422,2.305c-6.322,0-12.097-0.77-17.318-2.305
			c-5.228-1.539-10.372-4.153-15.426-7.842C586.896,175.561,582.903,169.976,579.961,162.496z M598.818,104.643
			c-5.396,6.422-8.093,16.639-8.093,30.642c0,14.009,2.697,24.22,8.093,30.646c5.401,6.418,14.041,9.631,25.933,9.631
			c11.885,0,20.544-3.177,25.978-9.531c5.434-6.352,8.15-16.601,8.15-30.745s-2.717-24.391-8.15-30.745
			c-5.434-6.354-14.093-9.53-25.978-9.53C612.859,95.01,604.22,98.221,598.818,104.643z"/>
		<path fill="#333333" d="M692.485,143.686V83.019h15.169v61.353c0,10.636,2.317,18.426,6.959,23.367
			c4.636,4.941,11.897,7.41,21.786,7.41c9.754,0,16.984-2.469,21.69-7.41s7.063-12.731,7.063-23.367V83.019h15.161v60.667
			c0,14.557-3.824,25.811-11.466,33.771c-7.648,7.96-18.464,11.939-32.448,11.939c-13.977,0-24.793-3.979-32.441-11.939
			C696.31,169.497,692.485,158.243,692.485,143.686z"/>
		<path fill="#333333" d="M798.759,134.055c0-10.385,1.403-19.216,4.204-26.491c2.808-7.276,6.689-12.725,11.646-16.346
			s9.998-6.166,15.13-7.636c5.131-1.468,10.771-2.203,16.926-2.203c9.206,0,17.872,1.333,25.983,3.996V43.153h15.168v113.346
			c0,2.804-0.412,5.672-1.229,8.607c-0.817,2.942-2.53,6.444-5.131,10.507c-2.602,4.065-7.043,7.378-13.34,9.94
			c-6.29,2.563-14.055,3.844-23.293,3.844c-3.901,0-7.713-0.342-11.44-1.024c-3.728-0.682-7.765-2.221-12.104-4.612
			c-4.346-2.392-8.086-5.502-11.234-9.326s-5.813-9.206-8.003-16.14C799.854,151.361,798.759,143.281,798.759,134.055z
			 M813.927,134.055c0,8.813,0.953,16.191,2.865,22.137c1.912,5.946,4.539,10.215,7.88,12.809c3.342,2.598,6.548,4.34,9.619,5.229
			c3.064,0.888,6.579,1.332,10.532,1.332c18.555,0,27.825-6.148,27.825-18.445V100.44c-8.523-3.485-17.183-5.226-25.983-5.226
			c-11.46,0-19.778,3.074-24.961,9.224C816.521,110.586,813.927,120.458,813.927,134.055z"/>
	</g>
</g>
</svg>
