<?xml version="1.0" encoding="utf-8"?>
<!-- Generator: Adobe Illustrator 16.0.0, SVG Export Plug-In . SVG Version: 6.00 Build 0)  -->
<!DOCTYPE svg PUBLIC "-//W3C//DTD SVG 1.1//EN" "http://www.w3.org/Graphics/SVG/1.1/DTD/svg11.dtd">
<svg version="1.1" id="Layer_1" xmlns="http://www.w3.org/2000/svg" xmlns:xlink="http://www.w3.org/1999/xlink" x="0px" y="0px"
	 width="436.854px" height="436.854px" viewBox="0 0 436.854 436.854" enable-background="new 0 0 436.854 436.854"
	 xml:space="preserve">
<g>
	<path fill="#19A8CD" d="M234.253,34.761c-6.072,6.084-11.346,12.663-15.832,19.617c-4.475-6.954-9.748-13.539-15.831-19.617
		c-46.334-46.347-121.487-46.345-167.832,0c-46.345,46.345-46.345,121.486,0,167.832c6.083,6.083,12.674,11.344,19.616,15.831
		c-6.942,4.486-13.533,9.748-19.616,15.831c-46.345,46.352-46.345,121.486,0,167.831c46.344,46.345,121.486,46.357,167.844,0
		l17.367-17.36l164.759-164.766l17.367-17.367c7.691-7.699,14.077-16.194,19.218-25.222c25.82-45.299,19.422-103.968-19.218-142.609
		C355.737-11.59,280.598-11.584,234.253,34.761z"/>
	<path fill="#19A8CD" d="M402.096,234.254c-0.157-0.157-0.327-0.302-0.484-0.459L233.806,401.59
		c0.156,0.163,0.289,0.339,0.447,0.495c46.355,46.357,121.484,46.357,167.843,0C448.439,355.74,448.439,280.606,402.096,234.254z"/>
</g>
</svg>
