<?xml version="1.0" encoding="utf-8"?>
<!-- Generator: Adobe Illustrator 16.0.0, SVG Export Plug-In . SVG Version: 6.00 Build 0)  -->
<!DOCTYPE svg PUBLIC "-//W3C//DTD SVG 1.1//EN" "http://www.w3.org/Graphics/SVG/1.1/DTD/svg11.dtd">
<svg version="1.1" id="Layer_1" xmlns="http://www.w3.org/2000/svg" xmlns:xlink="http://www.w3.org/1999/xlink" x="0px" y="0px"
	 width="540.922px" height="496.734px" viewBox="0 0 540.922 496.734" enable-background="new 0 0 540.922 496.734"
	 xml:space="preserve">
<g>
	<g>
		<path fill="#19A8CD" d="M281.941,25.212c-4.404,4.413-8.229,9.185-11.483,14.229c-3.246-5.044-7.07-9.82-11.482-14.229
			c-33.606-33.616-88.116-33.614-121.729,0c-33.615,33.614-33.615,88.115,0,121.729c4.412,4.412,9.192,8.228,14.228,11.482
			c-5.035,3.254-9.815,7.07-14.228,11.482c-33.615,33.619-33.615,88.115,0,121.729c33.614,33.614,88.115,33.623,121.738,0
			l12.597-12.592l119.501-119.506l12.597-12.596c5.578-5.584,10.21-11.746,13.938-18.294
			c18.728-32.855,14.087-75.409-13.938-103.436C370.056-8.406,315.556-8.402,281.941,25.212z"/>
		<path fill="#19A8CD" d="M403.68,169.907c-0.114-0.114-0.237-0.219-0.352-0.333L281.617,291.276
			c0.113,0.118,0.21,0.246,0.324,0.359c33.622,33.623,88.114,33.623,121.738,0C437.293,258.021,437.293,203.526,403.68,169.907z"/>
	</g>
	<g>
		<path fill="#333333" d="M0,495.295l43.479-61.851L1.079,372.838h26.808l29.219,41.334l28.956-41.334h25.909L69.922,432.55
			l44.018,62.745H87.141l-30.842-43.652l-30.833,43.652H0z"/>
		<path fill="#333333" d="M128.106,433.979c0-41.832,18.943-62.75,56.838-62.75c13.093,0,25.518,2.359,37.294,7.083v12.729
			c-11.658-4.898-23.605-7.351-35.864-7.351c-15.54,0-26.926,4.035-34.154,12.105c-7.232,8.062-10.851,20.793-10.851,38.184
			c0,17.396,3.618,30.124,10.851,38.189c7.229,8.07,18.614,12.102,34.154,12.102c12.496,0,24.452-2.386,35.864-7.168v12.729
			c-11.71,4.602-23.996,6.904-36.851,6.904c-0.176,0-0.325,0-0.444,0C147.049,496.734,128.106,475.813,128.106,433.979z"/>
		<path fill="#333333" d="M238.371,495.295V368.808h13.271v126.487H238.371z"/>
		<path fill="#333333" d="M271.625,473.199c-2.565-6.544-3.851-14.475-3.851-23.799c0-9.325,1.286-17.259,3.851-23.803
			c2.579-6.544,6.07-11.426,10.496-14.654c4.42-3.228,8.921-5.518,13.491-6.859c4.57-1.346,9.619-2.017,15.149-2.017
			c5.526,0,10.605,0.671,15.24,2.017c4.629,1.342,9.158,3.632,13.585,6.859c4.421,3.229,7.916,8.11,10.486,14.654
			c2.566,6.544,3.851,14.478,3.851,23.803c0,9.324-1.284,17.255-3.851,23.799c-2.57,6.544-6.065,11.43-10.486,14.657
			c-4.427,3.229-8.956,5.515-13.585,6.86c-4.635,1.342-9.714,2.018-15.24,2.018c-5.53,0-10.579-0.676-15.149-2.018
			c-4.57-1.346-9.071-3.632-13.491-6.86C277.695,484.629,274.204,479.743,271.625,473.199z M288.126,422.593
			c-4.72,5.624-7.079,14.553-7.079,26.808s2.359,21.185,7.079,26.804c4.724,5.618,12.28,8.425,22.685,8.425
			c10.395,0,17.97-2.775,22.719-8.333c4.755-5.563,7.132-14.527,7.132-26.896c0-12.373-2.377-21.334-7.132-26.895
			c-4.749-5.562-12.324-8.334-22.719-8.334C300.406,414.172,292.85,416.979,288.126,422.593z"/>
		<path fill="#333333" d="M370.056,456.751v-53.07h13.272v53.668c0,9.303,2.026,16.118,6.087,20.438
			c4.054,4.325,10.404,6.483,19.059,6.483c8.53,0,14.855-2.158,18.969-6.483c4.119-4.319,6.18-11.135,6.18-20.438v-53.668h13.263
			v53.07c0,12.728-3.346,22.575-10.03,29.536c-6.688,6.965-16.149,10.447-28.381,10.447c-12.229,0-21.689-3.482-28.379-10.447
			C373.402,479.326,370.056,469.479,370.056,456.751z"/>
		<path fill="#333333" d="M463.022,448.321c0-9.079,1.223-16.807,3.674-23.171c2.457-6.365,5.852-11.127,10.189-14.299
			c4.333-3.167,8.746-5.39,13.233-6.68c4.486-1.28,9.421-1.925,14.806-1.925c8.054,0,15.632,1.162,22.729,3.495v-36.935h13.268
			v99.15c0,2.451-0.36,4.961-1.074,7.53c-0.715,2.57-2.216,5.633-4.492,9.184c-2.271,3.562-6.158,6.457-11.667,8.699
			c-5.5,2.24-12.293,3.363-20.372,3.363c-3.418,0-6.751-0.299-10.01-0.895c-3.263-0.602-6.793-1.948-10.587-4.036
			c-3.803-2.096-7.075-4.812-9.829-8.157c-2.754-3.351-5.084-8.053-7-14.123C463.979,463.462,463.022,456.393,463.022,448.321z
			 M476.29,448.321c0,7.711,0.833,14.168,2.504,19.368c1.671,5.198,3.97,8.931,6.895,11.203c2.921,2.271,5.725,3.798,8.412,4.569
			c2.681,0.781,5.755,1.167,9.216,1.167c16.228,0,24.338-5.377,24.338-16.132v-49.579c-7.456-3.044-15.031-4.57-22.729-4.57
			c-10.025,0-17.302,2.688-21.833,8.07C478.557,427.795,476.29,436.431,476.29,448.321z"/>
	</g>
</g>
</svg>
